<svg viewBox="0 0 65 30" xmlns="http://www.w3.org/2000/svg">
  <title>
    live
  </title>
  <g fill="none" fill-rule="evenodd">
    <path d="M0 3c0-1.657 1.343-3 3.005-3h58.99C63.655 0 65 1.347 65 3v24c0 1.657-1.343 3-3.005 3H3.005C1.345 30 0 28.653 0 27V3z" fill="#F24747"/>
    <path d="M44.795 6v17.136H56.7v-1.92h-9.625v-5.928h8.904v-1.92h-8.905V7.92h9.552V6H44.795zm-8.777 17.136L42.114 6h-2.376l-4.944 14.856h-.048L29.85 6h-2.448l6.024 17.136h2.592zM22.298 6v17.136h2.28V6h-2.28zM8 6v17.136h11.352v-1.92H10.28V6H8z" fill="#FFF"/>
  </g>
</svg>
