<svg xmlns="http://www.w3.org/2000/svg" viewBox="0 0 100 100">
  <path fill="#FFF" fill-rule="evenodd" d="M50 0C38.934 0 28.71 3.597 20.427 9.683c-.987-.73-2.208-1.162-3.532-1.162-3.287 0-5.952 2.667-5.952 5.955 0 1.172.34 2.266.927 3.187C4.468 26.38 0 37.668 0 50c0 27.614 22.386 50 50 50s50-22.386 50-50S77.614 0 50 0zm0 97.414C23.815 97.414 2.586 76.184 2.586 50c0-11.62 4.18-22.258 11.118-30.503.922.587 2.016.93 3.19.93 3.29 0 5.954-2.666 5.954-5.953 0-1.026-.26-1.99-.716-2.834C29.955 5.947 39.584 2.586 50 2.586c26.187 0 47.414 21.227 47.414 47.414 0 26.185-21.227 47.414-47.414 47.414zM23.835 28.196H10.202c-.33 0-.598.27-.598.6v1.44c0 .33.268.6.598.6h1.98c.328 0 .597.268.597.598v15.4c0 .33-.27.6-.6.6H10.2c-.33 0-.597.268-.597.597v1.444c0 .33.268.598.598.598h13.634c.33 0 .598-.267.598-.597V48.03c0-.328-.27-.597-.598-.597h-1.98c-.328 0-.597-.27-.597-.6v-15.4c0-.33.27-.597.598-.597h1.98c.328 0 .597-.27.597-.6v-1.44c0-.33-.27-.6-.598-.6zm-5.217 18.637c0 .33-.27.6-.598.6h-2.003c-.33 0-.598-.27-.598-.6v-15.4c0-.33.267-.597.596-.597h2.003c.327 0 .597.268.597.598v15.4zM49.444 8.975h-1.442c-.328 0-.598.27-.598.6v7.138c0 .33-.27.6-.598.6h-3.403c-.328 0-.598-.27-.598-.6V9.575c0-.33-.27-.6-.598-.6h-1.442c-.33 0-.6.27-.6.6v7.138c0 .33-.27.6-.598.6h-3.402c-.33 0-.598-.27-.598-.6V9.575c0-.33-.27-.6-.6-.6h-1.44c-.33 0-.6.27-.6.6v9.777c0 .33.27.598.6.598h15.917c.33 0 .6-.27.6-.598V9.575c0-.33-.27-.6-.6-.6zm0 25.013h-6.04c-.33 0-.6-.27-.6-.6v-1.954c0-.33.27-.598.6-.598h6.02c.328 0 .598-.27.598-.6v-1.44c0-.33-.27-.6-.598-.6H33.547c-.33 0-.598.27-.598.6v1.44c0 .33.267.6.596.6h6.02c.33 0 .598.268.598.598v1.954c0 .33-.27.6-.598.6h-6.04c-.33 0-.6.27-.6.598v14.802c0 .33.27.6.6.6h1.44c.33 0 .6-.27.6-.6V37.226c0-.33.27-.6.598-.6h.99c.33 0 .598.27.598.6v12.162c0 .33.27.6.598.6h1.443c.33 0 .6-.27.6-.6V37.226c0-.33.27-.6.598-.6h.99c.33 0 .6.27.6.6v12.162c0 .33.27.6.6.6h1.44c.33 0 .6-.27.6-.6V37.226c0-.33.27-.6.597-.6h.99c.33 0 .598.27.598.6v12.162c0 .33.27.6.598.6h1.442c.33 0 .6-.27.6-.6V34.586c0-.328-.27-.598-.6-.598z"/>
</svg>
